<?xml version="1.0" encoding="UTF-8"?>
<svg version="1.1" xmlns="http://www.w3.org/2000/svg" width="500" height="500">
<path d="M0 0 C165 0 330 0 500 0 C500 165 500 330 500 500 C335 500 170 500 0 500 C0 335 0 170 0 0 Z " fill="#FEFEFE" transform="translate(0,0)"/>
<path d="M0 0 C1.98876953 2.03198242 1.98876953 2.03198242 3.8828125 4.85546875 C4.92115234 6.37817383 4.92115234 6.37817383 5.98046875 7.93164062 C6.68816406 9.00607422 7.39585937 10.08050781 8.125 11.1875 C8.84042969 12.24259766 9.55585938 13.29769531 10.29296875 14.38476562 C13.31337455 18.85891814 16.25258622 23.35235311 19 28 C17.83984375 28.21914062 16.6796875 28.43828125 15.484375 28.6640625 C2.30718844 31.28451771 -11.29955234 34.80108033 -19.61328125 46.21484375 C-28.40150832 60.01868429 -31.45278172 76.1067744 -28.28125 92.19921875 C-26.47854184 99.38824445 -24.19085801 105.8629231 -20 112 C-19.29875 113.03125 -18.5975 114.0625 -17.875 115.125 C-8.46024428 125.82087754 6.39349786 129.69168249 20 131 C39.86806399 132.24489768 59.17390035 130.70641761 77.91796875 123.734375 C80 123 80 123 82 123 C82 118.38 82 113.76 82 109 C83.32 109.66 84.64 110.32 86 111 C87.2612943 111.54352682 88.53251432 112.06458296 89.8125 112.5625 C90.43769531 112.81128906 91.06289062 113.06007813 91.70703125 113.31640625 C97.92091354 115.16892652 104.26336079 115.18250844 110.6875 115.1875 C111.52861328 115.19974609 112.36972656 115.21199219 113.23632812 115.22460938 C114.04908203 115.22654297 114.86183594 115.22847656 115.69921875 115.23046875 C116.42971436 115.23457764 117.16020996 115.23868652 117.9128418 115.24291992 C120.29887635 114.96521441 121.92512461 114.18125398 124 113 C124 111.02 124 109.04 124 107 C118.06332319 104.69129235 112.32901057 103.50712227 106.0625 102.5625 C90.23956852 100.08530335 90.23956852 100.08530335 84.375 94.5 C82.32391498 89.27905632 82.16454954 84.52916303 83 79 C85.97671334 73.2518639 89.91769785 71.91452318 95.8684082 69.82910156 C101.14310828 68.43260344 106.26393015 68.5001692 111.6875 68.625 C112.76322266 68.62628906 113.83894531 68.62757813 114.94726562 68.62890625 C120.96034359 68.69518635 126.24127599 69.25915236 132 71 C132 74.96 132 78.92 132 83 C130.93523437 82.67386719 129.87046875 82.34773438 128.7734375 82.01171875 C123.08759894 80.59213852 117.45190253 80.74572609 111.625 80.8125 C110.53316406 80.81314453 109.44132813 80.81378906 108.31640625 80.81445312 C102.98927487 80.60181634 102.98927487 80.60181634 98 82 C98 84.31 98 86.62 98 89 C99.1859375 89.17015625 100.371875 89.3403125 101.59375 89.515625 C131.7558566 93.96366648 131.7558566 93.96366648 137 99 C140.16941507 103.7082629 139.95138076 109.58671721 139 115 C136.17802347 120.5024612 132.74299357 123.53114604 126.921875 125.59765625 C122.00250268 127.17955649 117.51073526 127.42164195 112.375 127.3125 C111.51487305 127.30412109 110.65474609 127.29574219 109.76855469 127.28710938 C102.07513141 127.14458579 94.58286809 126.28678974 87 125 C87.721875 125.87140625 88.44375 126.7428125 89.1875 127.640625 C94.75088785 134.66774912 98.20715627 139.50454708 97.3515625 148.8671875 C97.23554688 149.57101562 97.11953125 150.27484375 97 151 C92.03747231 153.27098725 87.25475697 154.8610369 81.9375 156.0625 C80.82604614 156.31737183 80.82604614 156.31737183 79.69213867 156.57739258 C62.62749758 160.38680715 45.46764233 161.18697716 28.05029297 161.18530273 C25.50341246 161.18749706 22.95696119 161.20575685 20.41015625 161.22460938 C6.93481544 161.27339458 -5.79721032 160.26167274 -18.625 155.8125 C-19.97646118 155.3479541 -19.97646118 155.3479541 -21.35522461 154.87402344 C-37.65675455 149.07857632 -52.46975368 138.3911326 -61 123 C-71.06452169 101.00233214 -74.70408112 73.23511674 -66.74072266 49.95166016 C-63.02441032 40.15989983 -58.19631258 30.69105907 -51 23 C-50.319375 22.26652344 -49.63875 21.53304687 -48.9375 20.77734375 C-37.82947479 9.83819055 -16.25878385 -2.2989965 0 0 Z " fill="#024BAD" transform="translate(142,160)"/>
<path d="M0 0 C7.67373492 5.23156589 13.30626881 12.13764257 15.40234375 21.328125 C15.46421875 22.1325 15.52609375 22.936875 15.58984375 23.765625 C14.59984375 22.775625 13.60984375 21.785625 12.58984375 20.765625 C13.57984375 24.230625 13.57984375 24.230625 14.58984375 27.765625 C15.57984375 27.435625 16.56984375 27.105625 17.58984375 26.765625 C19.06816635 29.72227019 18.65017158 32.50792237 18.58984375 35.765625 C19.77320313 35.74242187 20.9565625 35.71921875 22.17578125 35.6953125 C37.60886102 35.47971651 51.78736329 36.61190668 63.58984375 47.765625 C73.55947516 59.34697511 74.46497357 72.71968561 73.81274414 87.34765625 C72.82537132 98.05843434 68.43079856 107.43777971 60.58984375 114.765625 C55.15765346 119.11363594 49.27657824 121.08023905 42.58984375 122.765625 C45.65523582 128.48012132 49.26856549 133.48923068 53.27734375 138.578125 C53.89947754 139.37130127 54.52161133 140.16447754 55.16259766 140.98168945 C67.28957943 156.83253801 67.28957943 156.83253801 83.58984375 167.765625 C83.58984375 168.095625 83.58984375 168.425625 83.58984375 168.765625 C76.85223892 169.2259759 70.11872399 169.53868383 63.36889648 169.75439453 C61.07959652 169.84436068 58.79131525 169.96680707 56.50561523 170.12353516 C38.10115841 171.35290948 38.10115841 171.35290948 32.33197021 167.10192871 C28.29102606 162.87166851 25.49259483 158.05009299 22.78747559 152.89489746 C21.29474403 150.24096651 19.37007963 148.18544132 17.3046875 145.9609375 C12.17869336 138.58747725 13.88098323 128.18957843 14.15234375 119.640625 C14.1875075 117.7109942 14.21943756 115.78130161 14.24804688 113.8515625 C14.32466158 109.15470779 14.44516475 104.46085586 14.58984375 99.765625 C15.4096875 99.63647705 16.22953125 99.5073291 17.07421875 99.37426758 C18.151875 99.20048584 19.22953125 99.0267041 20.33984375 98.84765625 C21.4071875 98.6772583 22.47453125 98.50686035 23.57421875 98.33129883 C28.66364975 97.37661848 32.26219775 96.12820905 35.96484375 92.328125 C39.77317774 86.32267525 39.4319962 78.43114956 38.19921875 71.6015625 C36.62527574 67.02098477 33.61218711 65.03103482 29.625 62.7109375 C25.88002536 60.97142913 22.46859612 60.63006982 18.36230469 60.56030273 C17.32152771 60.54035751 16.28075073 60.52041229 15.20843506 60.49986267 C14.09164368 60.48315018 12.97485229 60.46643768 11.82421875 60.44921875 C10.10141693 60.4180471 10.10141693 60.4180471 8.34381104 60.38624573 C4.67588264 60.32087507 1.00788282 60.26192306 -2.66015625 60.203125 C-5.14714279 60.15992793 -7.63412212 60.11631325 -10.12109375 60.07226562 C-16.21737247 59.96520642 -22.3137222 59.86341675 -28.41015625 59.765625 C-28.41015625 61.085625 -28.41015625 62.405625 -28.41015625 63.765625 C-31.38015625 64.260625 -31.38015625 64.260625 -34.41015625 64.765625 C-34.90515625 66.745625 -34.90515625 66.745625 -35.41015625 68.765625 C-36.40015625 68.270625 -36.40015625 68.270625 -37.41015625 67.765625 C-37.41015625 77.335625 -37.41015625 86.905625 -37.41015625 96.765625 C-41.31841474 92.85736651 -43.93701471 89.11392951 -46.91015625 84.5078125 C-48.77045109 81.66293017 -50.75140905 78.93430165 -52.78515625 76.2109375 C-63.69354736 61.38713568 -63.69354736 61.38713568 -63.46484375 51.375 C-63.38995766 47.80186381 -64.34262752 45.64539716 -66.41015625 42.765625 C-68.84922685 40.56420168 -68.84922685 40.56420168 -71.41015625 38.765625 C-72.40015625 37.775625 -73.39015625 36.785625 -74.41015625 35.765625 C-67.15015625 35.765625 -59.89015625 35.765625 -52.41015625 35.765625 C-52.41015625 33.455625 -52.41015625 31.145625 -52.41015625 28.765625 C-49.29342526 15.91369308 -42.26872938 5.73883431 -31.359375 -1.6171875 C-21.36442439 -7.0005319 -9.53383554 -5.47715652 0 0 Z " fill="#030303" transform="translate(308.41015625,121.234375)"/>
<path d="M0 0 C16.83 0 33.66 0 51 0 C49.68 0.99 48.36 1.98 47 3 C42.91893289 6.101611 40.4251061 8.05348484 39 13 C38.70237907 16.09635262 38.68886889 19.17931841 38.68115234 22.28833008 C38.66608391 23.67930908 38.66608391 23.67930908 38.65071106 25.09838867 C38.61988548 28.15543005 38.60284554 31.21238386 38.5859375 34.26953125 C38.56722537 36.39231621 38.54765192 38.51509374 38.5272522 40.63786316 C38.4759299 46.21910214 38.43630458 51.80036524 38.39910889 57.38171387 C38.35906995 63.07940639 38.30797707 68.77699859 38.2578125 74.47460938 C38.16105199 85.64966911 38.0766475 96.82478549 38 108 C48.16233186 107.93866505 58.32440953 107.86146987 68.48646545 107.76428509 C73.20564043 107.71964611 77.92473036 107.68037582 82.64404297 107.65356445 C87.20240729 107.62746677 91.76044322 107.58701894 96.31860352 107.53681374 C98.05358786 107.52018864 99.78862894 107.50864731 101.52368164 107.50238609 C103.96274871 107.49269728 106.40098387 107.46458245 108.83984375 107.43237305 C109.54978989 107.43380814 110.25973602 107.43524323 110.99119568 107.4367218 C117.43318735 107.3171883 122.74146883 105.75663536 127.8125 101.8125 C130.53161345 98.31649699 131.64571525 95.20541053 133 91 C133.33 91 133.66 91 134 91 C134 104.86 134 118.72 134 133 C86.15 133 38.3 133 -11 133 C-8 131 -8 131 -6.0625 129.95703125 C-5.381875 129.57933594 -4.70125 129.20164062 -4 128.8125 C-2.9790625 128.26529297 -2.9790625 128.26529297 -1.9375 127.70703125 C1.39146089 124.77405562 2.75907684 121.00855616 3.27772141 116.68465996 C3.38912711 113.97560265 3.40539584 111.28138213 3.38818359 108.57006836 C3.39344055 107.54480545 3.39869751 106.51954254 3.40411377 105.46321106 C3.41727181 102.08859839 3.40859094 98.71446087 3.3984375 95.33984375 C3.40045928 92.98767507 3.40337158 90.635507 3.40713501 88.28334045 C3.41155256 83.35997535 3.40514487 78.4367738 3.39111328 73.51342773 C3.37401254 67.20620441 3.38387212 60.89936383 3.40183067 54.5921545 C3.41267572 49.73740255 3.40921897 44.88274122 3.4014473 40.02798653 C3.39944778 37.70238767 3.40189581 35.37678055 3.40888596 33.05119133 C3.41651309 29.80075174 3.40487827 26.55093069 3.38818359 23.30053711 C3.39425629 22.3419278 3.40032898 21.38331848 3.40658569 20.3956604 C3.35533601 15.00361459 2.55028143 11.82793056 0 7 C0 4.69 0 2.38 0 0 Z " fill="#024BAD" transform="translate(280,188)"/>
<path d="M0 0 C3.0482673 2.46455654 4.83325083 4.74987624 7 8 C7.1953125 11.13671875 7.1953125 11.13671875 7.125 14.6875 C7.10695312 15.86699219 7.08890625 17.04648438 7.0703125 18.26171875 C7.04710937 19.16535156 7.02390625 20.06898438 7 21 C7.61875 21.103125 8.2375 21.20625 8.875 21.3125 C11 22 11 22 13 25 C13.46138296 28.5464453 13.37033821 32.11423801 13.375 35.6875 C13.39949219 36.65623047 13.42398438 37.62496094 13.44921875 38.62304688 C13.4759335 45.2082317 12.42735398 49.3599673 9 55 C8.67 55.33 8.34 55.66 8 56 C7.84011509 58.51880517 7.74065775 61.01342266 7.68359375 63.53515625 C7.66281265 64.28840683 7.64203156 65.04165741 7.62062073 65.81773376 C7.55504575 68.2325599 7.49620379 70.64749798 7.4375 73.0625 C7.3943223 74.69597529 7.35070827 76.3294391 7.30664062 77.96289062 C7.19853203 81.97514718 7.09951886 85.98748424 7 90 C17.23 90 27.46 90 38 90 C38 85.05 38 80.1 38 75 C42.95 75 47.9 75 53 75 C53 69.06 53 63.12 53 57 C53.99 57 54.98 57 56 57 C57.4288118 66.6841689 58.03506476 75.82590933 52.1015625 84.1328125 C46.710315 90.29748791 41.5096033 93.19421969 33.35491943 93.86297607 C23.55576931 94.35191342 13.76752164 93.81291793 4 93 C3.505 88.05 3.505 88.05 3 83 C2.67 83.33 2.34 83.66 2 84 C0.14712498 84.07226502 -1.70833878 84.0838122 -3.5625 84.0625 C-5.08037109 84.04896484 -5.08037109 84.04896484 -6.62890625 84.03515625 C-7.41136719 84.02355469 -8.19382813 84.01195312 -9 84 C-9.495 83.01 -9.495 83.01 -10 82 C-10.721875 81.9175 -11.44375 81.835 -12.1875 81.75 C-16.05911368 80.71756968 -18.8684715 78.42166417 -21 75 C-20.6640625 72.80078125 -20.6640625 72.80078125 -20 71 C-20.99 70.67 -21.98 70.34 -23 70 C-23 66.04 -23 62.08 -23 58 C-22.01 58 -21.02 58 -20 58 C-20.52400391 57.18595703 -20.52400391 57.18595703 -21.05859375 56.35546875 C-21.51363281 55.64003906 -21.96867188 54.92460937 -22.4375 54.1875 C-22.88996094 53.47980469 -23.34242188 52.77210938 -23.80859375 52.04296875 C-26.7619104 46.97875693 -26.22085936 41.7485668 -26.25 36.0625 C-26.270625 35.06025391 -26.29125 34.05800781 -26.3125 33.02539062 C-26.31765625 32.05923828 -26.3228125 31.09308594 -26.328125 30.09765625 C-26.3374707 29.21601807 -26.34681641 28.33437988 -26.35644531 27.42602539 C-25.92396886 24.48251958 -25.08496951 23.1029855 -23 21 C-22.01 21 -21.02 21 -20 21 C-20.04640625 20.13117188 -20.0928125 19.26234375 -20.140625 18.3671875 C-20.43380329 9.00642363 -20.43380329 9.00642363 -18.4375 4.375 C-13.04926923 -0.87507101 -7.10365505 -2.21239538 0 0 Z " fill="#6772EC" transform="translate(154,194)"/>
<path d="M0 0 C1.07572266 0.00128906 2.15144531 0.00257813 3.25976562 0.00390625 C9.27284359 0.07018635 14.55377599 0.63415236 20.3125 2.375 C20.3125 6.335 20.3125 10.295 20.3125 14.375 C19.24773437 14.04886719 18.18296875 13.72273437 17.0859375 13.38671875 C11.40009894 11.96713852 5.76440253 12.12072609 -0.0625 12.1875 C-1.15433594 12.18814453 -2.24617188 12.18878906 -3.37109375 12.18945312 C-8.69822513 11.97681634 -8.69822513 11.97681634 -13.6875 13.375 C-13.6875 15.685 -13.6875 17.995 -13.6875 20.375 C-12.5015625 20.54515625 -11.315625 20.7153125 -10.09375 20.890625 C20.0683566 25.33866648 20.0683566 25.33866648 25.3125 30.375 C28.48191507 35.0832629 28.26388076 40.96171721 27.3125 46.375 C24.48753735 51.88328372 21.05260919 54.90857555 15.22265625 56.96875 C10.37110707 58.52691892 5.94330373 58.83547484 0.875 58.75 C0.02188232 58.74347412 -0.83123535 58.73694824 -1.71020508 58.73022461 C-24.8069387 58.2555613 -24.8069387 58.2555613 -28.6875 54.375 C-28.76008946 52.18860547 -28.77123783 49.99999611 -28.75 47.8125 C-28.74097656 46.61496094 -28.73195312 45.41742188 -28.72265625 44.18359375 C-28.71105469 43.25675781 -28.69945312 42.32992187 -28.6875 41.375 C-27.92179688 41.68308594 -27.15609375 41.99117188 -26.3671875 42.30859375 C-17.90505121 45.6761786 -10.0309358 46.55548296 -1 46.5625 C0.26166992 46.58086914 0.26166992 46.58086914 1.54882812 46.59960938 C2.76795898 46.60250977 2.76795898 46.60250977 4.01171875 46.60546875 C4.74221436 46.60957764 5.47270996 46.61368652 6.2253418 46.61791992 C8.61137635 46.34021441 10.23762461 45.55625398 12.3125 44.375 C12.3125 42.395 12.3125 40.415 12.3125 38.375 C6.37582319 36.06629235 0.64151057 34.88212227 -5.625 33.9375 C-21.44793148 31.46030335 -21.44793148 31.46030335 -27.3125 25.875 C-29.36358502 20.65405632 -29.52295046 15.90416303 -28.6875 10.375 C-25.71078666 4.6268639 -21.76980215 3.28952318 -15.8190918 1.20410156 C-10.54439172 -0.19239656 -5.42356985 -0.1248308 0 0 Z " fill="#070707" transform="translate(253.6875,228.625)"/>
<path d="M0 0 C1.29292969 -0.00257813 2.58585938 -0.00515625 3.91796875 -0.0078125 C4.59263184 -0.00362305 5.26729492 0.00056641 5.96240234 0.00488281 C8.02341157 0.0155843 10.08354919 0.00498557 12.14453125 -0.0078125 C13.43746094 -0.00523437 14.73039062 -0.00265625 16.0625 0 C17.25423828 0.00225586 18.44597656 0.00451172 19.67382812 0.00683594 C22.53125 0.265625 22.53125 0.265625 24.53125 2.265625 C25.01015437 5.6606143 24.9016404 9.09069534 24.90625 12.515625 C24.93074219 13.45792969 24.95523438 14.40023437 24.98046875 15.37109375 C25.00561585 21.34772234 24.46849914 24.70016913 20.53125 29.265625 C15.78146058 33.43968237 11.35789346 33.55289715 5.2578125 33.48046875 C0.28788871 33.08885584 -2.45177299 31.3650596 -5.78125 27.765625 C-9.14753046 22.77854283 -8.65218921 17.997873 -8.65625 12.203125 C-8.66849609 11.27951172 -8.68074219 10.35589844 -8.69335938 9.40429688 C-8.69529297 8.52193359 -8.69722656 7.63957031 -8.69921875 6.73046875 C-8.70332764 5.922146 -8.70743652 5.11382324 -8.71166992 4.28100586 C-8.10261753 -0.77198659 -4.10836172 0.00777678 0 0 Z " fill="#FCFCFE" transform="translate(139.46875,217.734375)"/>
<path d="M0 0 C22.11 0 44.22 0 67 0 C67 1.65 67 3.3 67 5 C68.98 5 70.96 5 73 5 C73 3.68 73 2.36 73 1 C73.66 1 74.32 1 75 1 C75 4.63 75 8.26 75 12 C74.34 12 73.68 12 73 12 C73 10.68 73 9.36 73 8 C71.02 8 69.04 8 67 8 C67 9.32 67 10.64 67 12 C66.01 12 65.02 12 64 12 C63.505 8.04 63.505 8.04 63 4 C60.03 4 57.06 4 54 4 C54 5.98 54 7.96 54 10 C56.64 10 59.28 10 62 10 C62 10.66 62 11.32 62 12 C58.37 12 54.74 12 51 12 C50.505 11.01 50.505 11.01 50 10 C49.67 10.66 49.34 11.32 49 12 C47.68 12 46.36 12 45 12 C45 10.68 45 9.36 45 8 C43.68 8 42.36 8 41 8 C41 9.32 41 10.64 41 12 C39.02 12 37.04 12 35 12 C35 10.68 35 9.36 35 8 C33.02 8 31.04 8 29 8 C29 9.32 29 10.64 29 12 C19.76 12 10.52 12 1 12 C1 11.34 1 10.68 1 10 C3.64 10 6.28 10 9 10 C9 9.34 9 8.68 9 8 C6.36 8 3.72 8 1 8 C0.67 5.36 0.34 2.72 0 0 Z " fill="#E6E6E6" transform="translate(291,337)"/>
<path d="M0 0 C5.94 0 11.88 0 18 0 C18 1.98 18 3.96 18 6 C21.96 6 25.92 6 30 6 C30 10.95 30 15.9 30 21 C24.06 21 18.12 21 12 21 C12 19.02 12 17.04 12 15 C8.04 15 4.08 15 0 15 C0 10.05 0 5.1 0 0 Z " fill="#7564F1" transform="translate(173,245)"/>
<path d="M0 0 C0 0.66 0 1.32 0 2 C1.299375 1.67515625 1.299375 1.67515625 2.625 1.34375 C8.54598962 0.74068624 13.12669364 3.87096449 18 7 C20.38332745 9.21561182 22.0873622 11.34355861 24 14 C23.01 14 22.02 14 21 14 C22.11747153 16.8366585 23.28055225 19.57189497 24.625 22.3125 C26.23041553 26.61793257 26.23915084 29.45613395 26 34 C24.44608078 31.13475655 23.57096591 28.47362301 22.8125 25.3125 C20.89849811 18.8336036 17.51871142 13.28224115 11.765625 9.55078125 C9.37256747 8.30268108 9.37256747 8.30268108 6 7 C6.721875 7.721875 7.44375 8.44375 8.1875 9.1875 C9.115625 10.115625 10.04375 11.04375 11 12 C11.825 12.721875 12.65 13.44375 13.5 14.1875 C17.68251677 18.89283137 21.3125 24.64974058 21.3125 31.125 C21.1578125 32.548125 21.1578125 32.548125 21 34 C19.23265354 31.34898031 18.4981552 29.66136389 17.625 26.6875 C15.3734195 19.77593199 11.92895882 15.26885035 6 11 C1.75220939 9.19242953 -2.42941895 8.54846973 -7 8 C-6.67 7.34 -6.34 6.68 -6 6 C-8.64 6 -11.28 6 -14 6 C-14 6.66 -14 7.32 -14 8 C-13.34 8.33 -12.68 8.66 -12 9 C-12 9.66 -12 10.32 -12 11 C-13.299375 11.7734375 -13.299375 11.7734375 -14.625 12.5625 C-22.11182441 17.35902344 -25.03017786 25.7232912 -27 34 C-27.33 34 -27.66 34 -28 34 C-27.6083965 28.04492601 -26.62875405 23.37180176 -24 18 C-25.98 19.32 -27.96 20.64 -30 22 C-30.66 21.67 -31.32 21.34 -32 21 C-30.824375 20.1028125 -30.824375 20.1028125 -29.625 19.1875 C-26.85425677 17.08914751 -26.85425677 17.08914751 -25 14 C-24.34 14 -23.68 14 -23 14 C-22.93941406 13.23300781 -22.87882812 12.46601563 -22.81640625 11.67578125 C-22 9 -22 9 -19.71484375 7.41796875 C-18.79832031 7.01191406 -17.88179688 6.60585937 -16.9375 6.1875 C-16.01839844 5.76855469 -15.09929687 5.34960938 -14.15234375 4.91796875 C-13.44207031 4.61503906 -12.73179687 4.31210938 -12 4 C-21.44147911 6.58067096 -26.60519645 10.90779467 -32 19 C-32 14.2048822 -29.23181742 11.37871821 -26 8 C-17.58993026 1.78090312 -10.34168056 -0.36788587 0 0 Z M-9 2 C-9 2.33 -9 2.66 -9 3 C-6.03 3 -3.06 3 0 3 C0 2.67 0 2.34 0 2 C-2.97 2 -5.94 2 -9 2 Z " fill="#9D9D9D" transform="translate(295,122)"/>
<path d="M0 0 C12.21 0 24.42 0 37 0 C37 1.65 37 3.3 37 5 C38.98 5 40.96 5 43 5 C43 3.68 43 2.36 43 1 C43.66 1 44.32 1 45 1 C45 4.63 45 8.26 45 12 C41.37 12 37.74 12 34 12 C34 11.34 34 10.68 34 10 C36.97 10 39.94 10 43 10 C43 9.34 43 8.68 43 8 C40.03 8 37.06 8 34 8 C33.505 6.02 33.505 6.02 33 4 C31.35 4 29.7 4 28 4 C28 6.64 28 9.28 28 12 C26.68 11.67 25.36 11.34 24 11 C24 9.02 24 7.04 24 5 C23.01 5 22.02 5 21 5 C21 7.31 21 9.62 21 12 C19.35 12 17.7 12 16 12 C15.67 11.34 15.34 10.68 15 10 C14.67 10.66 14.34 11.32 14 12 C13.01 12 12.02 12 11 12 C11 10.68 11 9.36 11 8 C9.68 8 8.36 8 7 8 C7 9.32 7 10.64 7 12 C2.05 12 -2.9 12 -8 12 C-8 8.37 -8 4.74 -8 1 C-7.34 1 -6.68 1 -6 1 C-6 3.97 -6 6.94 -6 10 C-4.02 10 -2.04 10 0 10 C0 6.7 0 3.4 0 0 Z " fill="#DFDFDF" transform="translate(211,337)"/>
<path d="M0 0 C8.25 0 16.5 0 25 0 C25 2.64 25 5.28 25 8 C24.01 8 23.02 8 22 8 C22 9.32 22 10.64 22 12 C21.34 12 20.68 12 20 12 C20 10.68 20 9.36 20 8 C18.68 8 17.36 8 16 8 C16 9.32 16 10.64 16 12 C12.72373625 12.9821994 9.77211881 13.11580914 6.359375 13.09765625 C5.28945312 13.09443359 4.21953125 13.09121094 3.1171875 13.08789062 C2.00601563 13.07951172 0.89484375 13.07113281 -0.25 13.0625 C-1.93996094 13.05573242 -1.93996094 13.05573242 -3.6640625 13.04882812 C-6.44273106 13.03705411 -9.22137227 13.019119 -12 13 C-12 9.04 -12 5.08 -12 1 C-8.7 1 -5.4 1 -2 1 C-2 2.65 -2 4.3 -2 6 C-1.34 6 -0.68 6 0 6 C0 4.02 0 2.04 0 0 Z " fill="#DFDFDF" transform="translate(130,337)"/>
<path d="M0 0 C12.21 0 24.42 0 37 0 C37 1.32 37 2.64 37 4 C34.03 4 31.06 4 28 4 C28 5.98 28 7.96 28 10 C30.64 10 33.28 10 36 10 C36 10.66 36 11.32 36 12 C24.12 12 12.24 12 0 12 C0 11.34 0 10.68 0 10 C2.97 10 5.94 10 9 10 C9 9.34 9 8.68 9 8 C6.03 8 3.06 8 0 8 C0 5.36 0 2.72 0 0 Z " fill="#EEEEEE" transform="translate(164,337)"/>
<path d="M0 0 C2.6258382 1.78870171 3.34201385 3.11189509 5 6 C5.55724601 9.9703778 5.38142821 12.18265383 3.6875 15.8125 C1.74220038 18.33418469 0.11150231 19.80226082 -3.0859375 20.37109375 C-7.54279615 20.50038828 -9.3794666 20.49125561 -13 17.625 C-16.12026386 13.52965369 -16.51886942 11.18869417 -16 6 C-11.91144457 -0.86511172 -7.42772528 -2.06183409 0 0 Z " fill="#EEF8FC" transform="translate(203,197)"/>
<path d="M0 0 C2.75569447 2.18159145 4.43588747 3.87177494 6 7 C6.4136968 11.65408901 5.81070393 14.25239476 3 18 C-1.01858595 20.6790573 -4.27641721 20.69610694 -9 20 C-11.87029869 18.20606332 -13.49131638 17.01736724 -15 14 C-15.5811138 6.91041162 -15.5811138 6.91041162 -13.125 3.0625 C-9.24699241 -0.70144855 -5.21240222 -0.82822281 0 0 Z " fill="#F0F5FC" transform="translate(216,218)"/>
<path d="M0 0 C1.5 1.375 1.5 1.375 3 3 C3.99755203 4.00244199 4.99721838 5.00278938 6 6 C5.32195312 5.7834375 4.64390625 5.566875 3.9453125 5.34375 C-7.75952258 1.84202648 -17.56842193 2.19192932 -29 7 C-34.03150518 10.72180627 -36.45894613 16.42922805 -39 22 C-38.5875 21.40832031 -38.175 20.81664062 -37.75 20.20703125 C-33.48821116 14.37561036 -29.19106076 9.30759675 -21.9375 7.48046875 C-20 7.1875 -20 7.1875 -17 7 C-19.81228437 9.81228437 -23.17719669 10.98124961 -26.78515625 12.5859375 C-29.15915023 13.77265417 -29.15915023 13.77265417 -29.65625 16 C-29.7696875 16.66 -29.883125 17.32 -30 18 C-32.4375 20.625 -32.4375 20.625 -35 23 C-35.66 23.66 -36.32 24.32 -37 25 C-36.34 25.33 -35.68 25.66 -35 26 C-35.7115625 27.546875 -35.7115625 27.546875 -36.4375 29.125 C-37.84522388 32.38534162 -38.56835498 35.46051083 -39 39 C-43.75 39.125 -43.75 39.125 -46 38 C-46 27.17437992 -41.04185473 15.93914477 -33.75 7.875 C-24.21407158 -0.26490287 -12.23093671 -4.0769789 0 0 Z " fill="#575757" transform="translate(302,118)"/>
<path d="M0 0 C3.36046048 1.21548571 4.8814778 2.13662225 6.9375 5.0625 C7.44049316 9.17027749 7.26499345 10.57125983 4.9375 14.0625 C4.56370233 17.15907385 4.43226815 20.23290694 4.28125 23.34765625 C3.9375 26.0625 3.9375 26.0625 1.9375 28.0625 C-1.1875 28.1875 -1.1875 28.1875 -4.0625 28.0625 C-5.78029358 24.62691285 -5.46696288 20.70350107 -5.68359375 16.91015625 C-5.87617373 13.86520409 -5.87617373 13.86520409 -8.0625 11.0625 C-8.68535199 6.96947263 -8.39347117 5.52001898 -5.9375 2.125 C-3.0625 0.0625 -3.0625 0.0625 0 0 Z " fill="#5882E7" transform="translate(148.0625,219.9375)"/>
<path d="M0 0 C12.32142857 -0.13392857 12.32142857 -0.13392857 16 1 C16 2.32 16 3.64 16 5 C17.98 5 19.96 5 22 5 C22 3.68 22 2.36 22 1 C22.66 1 23.32 1 24 1 C24 4.96 24 8.92 24 13 C15.91254698 13.0962792 8.05162236 12.76682118 0 12 C0 8.04 0 4.08 0 0 Z " fill="#EBEBEB" transform="translate(92,337)"/>
<path d="M0 0 C8.37459753 2.32830878 14.70892918 8.22061982 19.0625 15.6875 C20.75033255 19.07505125 21.70709888 22.19228538 22 26 C21.01 25.01 20.02 24.02 19 23 C19.66 25.31 20.32 27.62 21 30 C21.99 29.67 22.98 29.34 24 29 C25.125 35.75 25.125 35.75 24 38 C20 38 20 38 18 37 C18.103125 35.88625 18.20625 34.7725 18.3125 33.625 C18.36477393 28.73738739 16.40253423 25.3534263 13.99609375 21.19921875 C13 19 13 19 14 16 C14.66 16.33 15.32 16.66 16 17 C11.41205737 10.67607908 6.52302793 7.29283295 -1 5 C-4.22960027 4.82698601 -4.22960027 4.82698601 -7 5 C-7 4.34 -7 3.68 -7 3 C-16.50113032 3.88881542 -23.70813275 6.34136314 -32 11 C-33.3293148 11.6746439 -34.66104403 12.3446992 -36 13 C-31.19226931 6.04247103 -25.62163753 3.30938762 -17.484375 1.4140625 C-9.45461048 0.07576841 -2.60544071 1.28145949 5 4 C4.175 3.525625 3.35 3.05125 2.5 2.5625 C1.675 2.046875 0.85 1.53125 0 1 C0 0.67 0 0.34 0 0 Z M-16 5 C-13.03 5 -10.06 5 -7 5 C-7 5.33 -7 5.66 -7 6 C-9.97 6 -12.94 6 -16 6 C-16 5.67 -16 5.34 -16 5 Z " fill="#151515" transform="translate(302,119)"/>
<path d="M0 0 C3.54103514 -0.17520981 7.08094884 -0.28114745 10.625 -0.375 C11.62402344 -0.42527344 12.62304688 -0.47554687 13.65234375 -0.52734375 C21.08145159 -0.67494192 21.08145159 -0.67494192 23.83007812 1.34472656 C24.80338015 2.42071642 25.75216042 3.51955075 26.67138672 4.64208984 C28.06403977 6.3174584 28.06403977 6.3174584 31.140625 6.65625 C32.67976563 6.57890625 32.67976563 6.57890625 34.25 6.5 C35.80460937 6.45359375 35.80460937 6.45359375 37.390625 6.40625 C40.15457072 6.23870374 40.15457072 6.23870374 42 4 C44.5625 3.8125 44.5625 3.8125 47 4 C48 5 48 5 48.1875 7.9375 C48 11 48 11 46 13 C41.44444444 12.44444444 41.44444444 12.44444444 40 11 C36.76588822 10.83555364 33.5343014 10.74511994 30.296875 10.671875 C27 10 27 10 24.78515625 7.50390625 C20.52254435 3.67174043 16.23344046 4.2194344 10.6875 4.1875 C9.66076172 4.16236328 8.63402344 4.13722656 7.57617188 4.11132812 C5.050396 4.05258915 2.52634772 4.01621288 0 4 C0 2.68 0 1.36 0 0 Z " fill="#7281ED" transform="translate(173,238)"/>
<path d="M0 0 C0.598125 0.20625 1.19625 0.4125 1.8125 0.625 C1.750625 1.841875 1.68875 3.05875 1.625 4.3125 C1.625 8.22241696 2.32905042 10.49769312 4.8125 13.625 C8.12514204 15.83342803 8.64701396 15.82225756 12.375 15.3125 C13.55255859 15.16361328 13.55255859 15.16361328 14.75390625 15.01171875 C16.86652631 14.71231629 16.86652631 14.71231629 18.8125 13.625 C18.8125 15.605 18.8125 17.585 18.8125 19.625 C17.4925 19.955 16.1725 20.285 14.8125 20.625 C14.8125 21.285 14.8125 21.945 14.8125 22.625 C12.5025 22.625 10.1925 22.625 7.8125 22.625 C7.8125 21.965 7.8125 21.305 7.8125 20.625 C6.74 20.563125 5.6675 20.50125 4.5625 20.4375 C0.8125 19.625 0.8125 19.625 -1.625 17.375 C-3.29041199 14.4438749 -3.56525893 12.9303906 -3.1875 9.625 C-3.8475 9.625 -4.5075 9.625 -5.1875 9.625 C-5.48046875 3.5703125 -5.48046875 3.5703125 -5.1875 1.625 C-2.1875 -0.375 -2.1875 -0.375 0 0 Z " fill="#FAF8FE" transform="translate(139.1875,252.375)"/>
<path d="M0 0 C2.6258382 1.78870171 3.34201385 3.11189509 5 6 C5.55724601 9.9703778 5.38142821 12.18265383 3.6875 15.8125 C1.74220038 18.33418469 0.11150231 19.80226082 -3.0859375 20.37109375 C-7.54279615 20.50038828 -9.3794666 20.49125561 -13 17.625 C-16.12026386 13.52965369 -16.51886942 11.18869417 -16 6 C-11.91144457 -0.86511172 -7.42772528 -2.06183409 0 0 Z M-13 7 C-13 10.54361243 -12.65850044 12.86591591 -10.875 15.9375 C-7.81547541 17.6712306 -5.43182475 17.42145216 -2 17 C0.56338689 15.52006844 0.56338689 15.52006844 2 13 C2.75015195 10.04308291 2.75015195 10.04308291 2 7 C-0.29014716 3.9900923 -1.79135614 2.30216097 -5.5 1.375 C-9.25999106 2.31499776 -10.7473603 3.88605689 -13 7 Z " fill="#2EA9DB" transform="translate(203,197)"/>
<path d="M0 0 C2.75569447 2.18159145 4.43588747 3.87177494 6 7 C6.4136968 11.65408901 5.81070393 14.25239476 3 18 C-1.01858595 20.6790573 -4.27641721 20.69610694 -9 20 C-11.87029869 18.20606332 -13.49131638 17.01736724 -15 14 C-15.5811138 6.91041162 -15.5811138 6.91041162 -13.125 3.0625 C-9.24699241 -0.70144855 -5.21240222 -0.82822281 0 0 Z M-11 4 C-12.63102777 7.26205554 -12.51981506 10.43555389 -12 14 C-11.16666667 16.16666667 -11.16666667 16.16666667 -9 17 C-5.90493248 17.39302445 -3.95551234 17.62908496 -1 17 C1.72675163 15.02928108 1.72675163 15.02928108 3 12 C2.93689022 8.84451076 2.48864121 6.86230802 0.9375 4.125 C-2.72658541 1.99746654 -7.2394435 2.11972175 -11 4 Z " fill="#548AE6" transform="translate(216,218)"/>
<path d="M0 0 C0.47397116 4.83450586 0.67972486 7.97011384 -2.0625 12.125 C-5 14 -5 14 -8.625 14.0625 C-12 13 -12 13 -13.9375 11.3125 C-15.28405972 8.38175237 -15.28350676 6.189451 -15 3 C-13.12345594 1.12345594 -10.0253881 1.30807325 -7.5 0.9375 C-6.3140625 0.76089844 -5.128125 0.58429688 -3.90625 0.40234375 C-1 0 -1 0 0 0 Z " fill="#FAF9FE" transform="translate(158,252)"/>
<path d="M0 0 C1.5 1.375 1.5 1.375 3 3 C3.99755203 4.00244199 4.99721838 5.00278938 6 6 C5.32195312 5.7834375 4.64390625 5.566875 3.9453125 5.34375 C-7.76426765 1.84060691 -17.56251501 2.19767711 -29 7 C-31.71293026 8.99464968 -33.31293862 11.10789478 -35 14 C-35.48082031 14.80953125 -35.96164062 15.6190625 -36.45703125 16.453125 C-37.68968548 18.61281671 -38.86604606 20.78728456 -40 23 C-40.66 22.34 -41.32 21.68 -42 21 C-37.11583465 11.65304828 -30.71401527 3.65506466 -20.671875 -0.38671875 C-14.23954323 -1.86314578 -6.26518984 -2.08839661 0 0 Z " fill="#656565" transform="translate(302,118)"/>
<path d="M0 0 C3.35211493 2.18616191 4.72686604 3.18059812 6 7 C6.06802967 8.72795352 6.08495645 10.45835365 6.0625 12.1875 C6.05347656 13.08855469 6.04445312 13.98960937 6.03515625 14.91796875 C6.02355469 15.60503906 6.01195312 16.29210937 6 17 C5.01 17 4.02 17 3 17 C2.97421875 16.32453125 2.9484375 15.6490625 2.921875 14.953125 C2.58410504 9.3641009 2.58410504 9.3641009 0.375 4.3125 C-3.08667823 2.39946729 -5.2654216 2.96261711 -9 4 C-11.10827055 7.16240582 -11.33817465 8.50657469 -11.625 12.1875 C-11.69976562 13.08855469 -11.77453125 13.98960937 -11.8515625 14.91796875 C-11.90054688 15.60503906 -11.94953125 16.29210937 -12 17 C-12.99 17 -13.98 17 -15 17 C-15.62460568 7.09305994 -15.62460568 7.09305994 -13.25 2.9375 C-8.61725635 -1.05180703 -6.11000018 -1.5007018 0 0 Z " fill="#F3FAFC" transform="translate(152,197)"/>
<path d="M0 0 C2.3125 1 2.3125 1 4 2 C4 1.34 4 0.68 4 0 C7.79588866 0.54226981 9.47211993 2.20127563 12 5 C11.67 5.99 11.34 6.98 11 8 C10.34 7.34 9.68 6.68 9 6 C9.33 6.66 9.66 7.32 10 8 C10.13415472 10.6723621 10.04318541 13.32250488 10 16 C9.67 16 9.34 16 9 16 C8.89042969 15.37351563 8.78085937 14.74703125 8.66796875 14.1015625 C8.50941406 13.28429687 8.35085938 12.46703125 8.1875 11.625 C8.03667969 10.81289062 7.88585937 10.00078125 7.73046875 9.1640625 C7.12455058 6.64179359 7.12455058 6.64179359 4 5 C-0.37058779 5.08093681 -2.40914459 5.48971578 -5.75 8.375 C-6.4925 9.24125 -7.235 10.1075 -8 11 C-9 12 -10 13 -11 14 C-9.8905928 10.51329166 -8.73662334 7.22515763 -7 4 C-11.81397943 8.05387741 -12.88541926 11.0217942 -14 17 C-14.66 17 -15.32 17 -16 17 C-15.56416015 11.55200186 -14.48521211 8.23877149 -11 4 C-7.3197195 1.02445406 -4.78959107 -0.75625122 0 0 Z " fill="#B5B5B5" transform="translate(294,140)"/>
<path d="M0 0 C4.29 0 8.58 0 13 0 C13 2.97 13 5.94 13 9 C8.71 9 4.42 9 0 9 C0 6.03 0 3.06 0 0 Z " fill="#F2EFFD" transform="translate(188,254)"/>
<path d="M0 0 C3.3 0 6.6 0 10 0 C10.33 3.63 10.66 7.26 11 11 C7.37 11 3.74 11 0 11 C0 7.37 0 3.74 0 0 Z " fill="#2F2F2F" transform="translate(402,338)"/>
<path d="M0 0 C3.3 0 6.6 0 10 0 C10.33 3.63 10.66 7.26 11 11 C7.37 11 3.74 11 0 11 C0 7.37 0 3.74 0 0 Z " fill="#2F2F2F" transform="translate(118,338)"/>
<path d="M0 0 C1.32 0.66 2.64 1.32 4 2 C4 2.66 4 3.32 4 4 C2.700625 4.7734375 2.700625 4.7734375 1.375 5.5625 C-6.11182441 10.35902344 -9.03017786 18.7232912 -11 27 C-11.33 27 -11.66 27 -12 27 C-11.6083965 21.04492601 -10.62875405 16.37180176 -8 11 C-9.98 12.32 -11.96 13.64 -14 15 C-14.66 14.67 -15.32 14.34 -16 14 C-14.824375 13.1028125 -14.824375 13.1028125 -13.625 12.1875 C-10.85425677 10.08914751 -10.85425677 10.08914751 -9 7 C-8.34 7 -7.68 7 -7 7 C-6.67 6.01 -6.34 5.02 -6 4 C-4.04402816 2.60287726 -2.04563599 1.26220093 0 0 Z " fill="#868686" transform="translate(279,129)"/>
<path d="M0 0 C-0.33 1.65 -0.66 3.3 -1 5 C-2.25103516 5.12955078 -2.25103516 5.12955078 -3.52734375 5.26171875 C-11.03746785 6.19940893 -16.71311432 7.74376215 -23 12 C-22 9 -22 9 -19.71484375 7.61328125 C-18.79832031 7.18402344 -17.88179688 6.75476563 -16.9375 6.3125 C-16.01839844 5.87550781 -15.09929687 5.43851562 -14.15234375 4.98828125 C-13.08693359 4.49908203 -13.08693359 4.49908203 -12 4 C-21.44147911 6.58067096 -26.60519645 10.90779467 -32 19 C-32 14.2048822 -29.23181742 11.37871821 -26 8 C-17.58993026 1.78090312 -10.34168056 -0.36788587 0 0 Z " fill="#CACACA" transform="translate(295,122)"/>
<path d="M0 0 C2.77141717 -0.08089542 5.54047819 -0.14044062 8.3125 -0.1875 C9.09818359 -0.21263672 9.88386719 -0.23777344 10.69335938 -0.26367188 C11.45068359 -0.27333984 12.20800781 -0.28300781 12.98828125 -0.29296875 C14.03302612 -0.31653442 14.03302612 -0.31653442 15.09887695 -0.34057617 C17.55626442 0.09965184 18.35097829 1.18724563 20 3 C22.04100238 3.57017808 22.04100238 3.57017808 24.1875 3.6875 C26.0746875 3.8421875 26.0746875 3.8421875 28 4 C28 5.32 28 6.64 28 8 C26.58506449 8.10884119 25.16767057 8.18597617 23.75 8.25 C22.96109375 8.29640625 22.1721875 8.3428125 21.359375 8.390625 C19 8 19 8 17.1875 6.03125 C14.14307116 3.20428036 11.20866624 3.33231631 7.25 3.25 C6.55261719 3.22035156 5.85523438 3.19070312 5.13671875 3.16015625 C3.42509187 3.08981542 1.71254185 3.04260054 0 3 C0 2.01 0 1.02 0 0 Z " fill="#5795E5" transform="translate(170,222)"/>
<path d="M0 0 C4.29 0 8.58 0 13 0 C13 0.99 13 1.98 13 3 C12.01 3 11.02 3 10 3 C10 4.98 10 6.96 10 9 C6.7 9 3.4 9 0 9 C0 6.03 0 3.06 0 0 Z " fill="#EEEDFD" transform="translate(176,248)"/>
<path d="M0 0 C2.5625 0.1875 2.5625 0.1875 4.5625 2.1875 C4.00694444 6.74305556 4.00694444 6.74305556 2.5625 8.1875 C2.32768307 10.37042774 2.14886677 12.55953174 2 14.75 C1.87431641 16.54630859 1.87431641 16.54630859 1.74609375 18.37890625 C1.68550781 19.30574219 1.62492188 20.23257813 1.5625 21.1875 C0.5725 21.1875 -0.4175 21.1875 -1.4375 21.1875 C-1.48648438 20.27226562 -1.53546875 19.35703125 -1.5859375 18.4140625 C-1.66070312 17.22554687 -1.73546875 16.03703125 -1.8125 14.8125 C-1.88210937 13.62914062 -1.95171875 12.44578125 -2.0234375 11.2265625 C-2.13967346 8.08187681 -2.13967346 8.08187681 -4.4375 6.1875 C-3.71780303 0.28598485 -3.71780303 0.28598485 0 0 Z " fill="#FBFCFE" transform="translate(147.4375,223.8125)"/>
<path d="M0 0 C2.375 0.8125 2.375 0.8125 3.375 2.8125 C3.51059318 5.81724497 3.41799016 8.80318847 3.375 11.8125 C0.405 11.8125 -2.565 11.8125 -5.625 11.8125 C-5.99477492 3.30767685 -5.99477492 3.30767685 -4.27734375 1.0078125 C-2.625 -0.1875 -2.625 -0.1875 0 0 Z " fill="#F9FCFE" transform="translate(148.625,202.1875)"/>
<path d="M0 0 C3.63 0 7.26 0 11 0 C11 2.31 11 4.62 11 7 C10.34 7 9.68 7 9 7 C9 8.32 9 9.64 9 11 C8.34 11 7.68 11 7 11 C7 9.68 7 8.36 7 7 C5.68 7 4.36 7 3 7 C3 8.32 3 9.64 3 11 C2.01 11 1.02 11 0 11 C0 7.37 0 3.74 0 0 Z " fill="#5A5A5A" transform="translate(215,338)"/>
<path d="M0 0 C3.63 0 7.26 0 11 0 C11 2.31 11 4.62 11 7 C10.34 7 9.68 7 9 7 C9 8.32 9 9.64 9 11 C8.34 11 7.68 11 7 11 C7 9.68 7 8.36 7 7 C5.68 7 4.36 7 3 7 C3 8.32 3 9.64 3 11 C2.01 11 1.02 11 0 11 C0 7.37 0 3.74 0 0 Z " fill="#5B5B5B" transform="translate(143,338)"/>
<path d="M0 0 C3.63 0 7.26 0 11 0 C11 3.63 11 7.26 11 11 C10.34 11 9.68 11 9 11 C9 9.68 9 8.36 9 7 C7.02 7 5.04 7 3 7 C3 8.32 3 9.64 3 11 C2.01 11 1.02 11 0 11 C0 7.37 0 3.74 0 0 Z " fill="#222222" transform="translate(389,338)"/>
<path d="M0 0 C3.63 0 7.26 0 11 0 C11 2.31 11 4.62 11 7 C10.34 7 9.68 7 9 7 C9 8.32 9 9.64 9 11 C8.01 11 7.02 11 6 11 C6 9.68 6 8.36 6 7 C4.68 7 3.36 7 2 7 C2 8.32 2 9.64 2 11 C1.34 11 0.68 11 0 11 C0 7.37 0 3.74 0 0 Z " fill="#232323" transform="translate(330,338)"/>
<path d="M0 0 C3.63 0 7.26 0 11 0 C11 3.63 11 7.26 11 11 C10.34 11 9.68 11 9 11 C9 9.68 9 8.36 9 7 C7.02 7 5.04 7 3 7 C3 8.32 3 9.64 3 11 C2.01 11 1.02 11 0 11 C0 7.37 0 3.74 0 0 Z " fill="#222222" transform="translate(317,338)"/>
<path d="M0 0 C3.63 0 7.26 0 11 0 C11 2.31 11 4.62 11 7 C10.34 7 9.68 7 9 7 C9 8.32 9 9.64 9 11 C8.01 11 7.02 11 6 11 C6 9.68 6 8.36 6 7 C4.68 7 3.36 7 2 7 C2 8.32 2 9.64 2 11 C1.34 11 0.68 11 0 11 C0 7.37 0 3.74 0 0 Z " fill="#232323" transform="translate(266,338)"/>
<path d="M0 0 C3.63 0 7.26 0 11 0 C11 3.63 11 7.26 11 11 C7.37 11 3.74 11 0 11 C0 10.34 0 9.68 0 9 C2.97 9 5.94 9 9 9 C9 8.34 9 7.68 9 7 C6.03 7 3.06 7 0 7 C0 4.69 0 2.38 0 0 Z " fill="#2D2D2D" transform="translate(164,338)"/>
<path d="M0 0 C3.63 0 7.26 0 11 0 C11 2.31 11 4.62 11 7 C8.03 7 5.06 7 2 7 C2 7.66 2 8.32 2 9 C4.97 9 7.94 9 11 9 C11 9.66 11 10.32 11 11 C7.37 11 3.74 11 0 11 C0 7.37 0 3.74 0 0 Z " fill="#2C2C2C" transform="translate(177,338)"/>
<path d="M0 0 C5.14316309 3.28590975 7.16110483 7.35268261 9 13 C9.25 16.0625 9.25 16.0625 9 18 C3.25 18.125 3.25 18.125 1 17 C0.4375 14.8203125 0.4375 14.8203125 0 12.125 C-0.5722779 8.61979783 -0.98046184 7.02930724 -3 4 C0.875 5.75 0.875 5.75 2 8 C1.47731534 5.23723823 0.89130413 2.6739124 0 0 Z " fill="#595959" transform="translate(303,139)"/>
<path d="M0 0 C0 0.66 0 1.32 0 2 C0.99 1.67 1.98 1.34 3 1 C4.9375 0.8671875 4.9375 0.8671875 7 0.875 C7.680625 0.87242187 8.36125 0.86984375 9.0625 0.8671875 C11 1 11 1 14 2 C14 2.66 14 3.32 14 4 C13.21496094 3.96519531 12.42992187 3.93039063 11.62109375 3.89453125 C2.77832205 3.50614758 2.77832205 3.50614758 -5 7 C-7.05730681 10.53152665 -8.5261192 14.19661472 -10 18 C-10.64964599 19.34170873 -11.30970019 20.67874742 -12 22 C-12.19946219 17.71156299 -11.59634007 14.93763883 -10 11 C-10.33 10.01 -10.66 9.02 -11 8 C-9.87811441 6.85111717 -8.75238316 5.70598863 -7.625 4.5625 C-6.99851562 3.92441406 -6.37203125 3.28632813 -5.7265625 2.62890625 C-3.74785826 0.76211967 -2.74097805 0 0 0 Z " fill="#AFAFAF" transform="translate(285,134)"/>
<path d="M0 0 C3.63 0 7.26 0 11 0 C11 0.99 11 1.98 11 3 C8.03 3 5.06 3 2 3 C2 3.66 2 4.32 2 5 C4.97 5 7.94 5 11 5 C11 5.66 11 6.32 11 7 C8.03 7 5.06 7 2 7 C2 7.66 2 8.32 2 9 C4.64 9 7.28 9 10 9 C10 9.66 10 10.32 10 11 C6.7 11 3.4 11 0 11 C0 7.37 0 3.74 0 0 Z " fill="#232323" transform="translate(279,338)"/>
<path d="M0 0 C3.63 0 7.26 0 11 0 C11 0.99 11 1.98 11 3 C8.03 3 5.06 3 2 3 C2 3.66 2 4.32 2 5 C4.97 5 7.94 5 11 5 C11 5.66 11 6.32 11 7 C8.03 7 5.06 7 2 7 C2 7.66 2 8.32 2 9 C4.64 9 7.28 9 10 9 C10 9.66 10 10.32 10 11 C6.7 11 3.4 11 0 11 C0 7.37 0 3.74 0 0 Z " fill="#232323" transform="translate(131,338)"/>
<path d="M0 0 C1.25490234 -0.00386719 1.25490234 -0.00386719 2.53515625 -0.0078125 C4.80470328 0.11765839 6.76092657 0.49163221 8.9375 1.125 C8.9375 1.785 8.9375 2.445 8.9375 3.125 C6.9575 3.455 4.9775 3.785 2.9375 4.125 C2.9375 3.465 2.9375 2.805 2.9375 2.125 C-6.56363032 3.01381542 -13.77063275 5.46636314 -22.0625 10.125 C-23.3918148 10.7996439 -24.72354403 11.4696992 -26.0625 12.125 C-21.25204162 5.16352364 -15.69502928 2.4669192 -7.5703125 0.53125 C-5.00365273 0.11546711 -2.59861499 -0.00803281 0 0 Z M-6.0625 4.125 C-3.0925 4.125 -0.1225 4.125 2.9375 4.125 C2.9375 4.455 2.9375 4.785 2.9375 5.125 C-0.0325 5.125 -3.0025 5.125 -6.0625 5.125 C-6.0625 4.795 -6.0625 4.465 -6.0625 4.125 Z " fill="#141414" transform="translate(292.0625,119.875)"/>
<path d="M0 0 C3.63 0 7.26 0 11 0 C11 0.99 11 1.98 11 3 C8.03 3 5.06 3 2 3 C2 3.66 2 4.32 2 5 C4.64 5 7.28 5 10 5 C10 6.98 10 8.96 10 11 C6.7 11 3.4 11 0 11 C0 10.34 0 9.68 0 9 C2.64 9 5.28 9 8 9 C8 8.34 8 7.68 8 7 C5.36 7 2.72 7 0 7 C0 4.69 0 2.38 0 0 Z " fill="#222222" transform="translate(292,338)"/>
<path d="M0 0 C0.99 0 1.98 0 3 0 C3 1.32 3 2.64 3 4 C4.98 4 6.96 4 9 4 C9 2.68 9 1.36 9 0 C9.66 0 10.32 0 11 0 C11 3.63 11 7.26 11 11 C7.37 11 3.74 11 0 11 C0 10.34 0 9.68 0 9 C2.97 9 5.94 9 9 9 C9 8.34 9 7.68 9 7 C6.03 7 3.06 7 0 7 C0 4.69 0 2.38 0 0 Z " fill="#252525" transform="translate(245,338)"/>
<path d="M0 0 C0.99 0 1.98 0 3 0 C3 1.32 3 2.64 3 4 C4.98 4 6.96 4 9 4 C9 2.68 9 1.36 9 0 C9.66 0 10.32 0 11 0 C11 3.63 11 7.26 11 11 C7.37 11 3.74 11 0 11 C0 10.34 0 9.68 0 9 C2.97 9 5.94 9 9 9 C9 8.34 9 7.68 9 7 C6.03 7 3.06 7 0 7 C0 4.69 0 2.38 0 0 Z " fill="#252525" transform="translate(105,338)"/>
<path d="M0 0 C0.66 0 1.32 0 2 0 C2 3.63 2 7.26 2 11 C1.01 11 0.02 11 -1 11 C-1 10.34 -1 9.68 -1 9 C-3.64 9 -6.28 9 -9 9 C-9 7.02 -9 5.04 -9 3 C-6.03 3 -3.06 3 0 3 C0 2.01 0 1.02 0 0 Z " fill="#F4F4F4" transform="translate(201,338)"/>
<path d="M0 0 C0.66 0 1.32 0 2 0 C2 2.31 2 4.62 2 7 C4.64 7 7.28 7 10 7 C10 7.66 10 8.32 10 9 C7.36 9 4.72 9 2 9 C2 9.66 2 10.32 2 11 C1.01 11 0.02 11 -1 11 C-1 10.34 -1 9.68 -1 9 C-3.64 9 -6.28 9 -9 9 C-9 8.34 -9 7.68 -9 7 C-6.03 7 -3.06 7 0 7 C0 6.34 0 5.68 0 5 C-2.97 5 -5.94 5 -9 5 C-9 4.34 -9 3.68 -9 3 C-6.03 3 -3.06 3 0 3 C0 2.01 0 1.02 0 0 Z " fill="#CBCBCB" transform="translate(290,338)"/>
<path d="M0 0 C3.3 0 6.6 0 10 0 C10 1.98 10 3.96 10 6 C7.36 6 4.72 6 2 6 C2 6.66 2 7.32 2 8 C4.64 8 7.28 8 10 8 C10 8.66 10 9.32 10 10 C6.7 10 3.4 10 0 10 C0 6.7 0 3.4 0 0 Z " fill="#232323" transform="translate(305,339)"/>
<path d="M0 0 C0.99 0 1.98 0 3 0 C3 1.32 3 2.64 3 4 C4.98 4 6.96 4 9 4 C9 2.68 9 1.36 9 0 C9.66 0 10.32 0 11 0 C11 3.63 11 7.26 11 11 C10.34 11 9.68 11 9 11 C9 9.68 9 8.36 9 7 C7.02 7 5.04 7 3 7 C3 8.32 3 9.64 3 11 C2.01 11 1.02 11 0 11 C0 7.37 0 3.74 0 0 Z " fill="#333333" transform="translate(355,338)"/>
<path d="M0 0 C7.92 0 15.84 0 24 0 C24 0.99 24 1.98 24 3 C16.08 3 8.16 3 0 3 C0 2.01 0 1.02 0 0 Z " fill="#933BFB" transform="translate(164,278)"/>
<path d="M0 0 C1 3 1 3 1.4375 6.5625 C1.66562518 10.05471588 1.66562518 10.05471588 4 12 C6.32275177 12.40047444 8.65739357 12.7397104 11 13 C11.33 13.99 11.66 14.98 12 16 C3.99173554 16.78512397 3.99173554 16.78512397 0 13.625 C-3.10948645 9.54379903 -3.36824172 7.15538412 -3 2 C-2.01 1.34 -1.02 0.68 0 0 Z " fill="#38A0DE" transform="translate(190,201)"/>
<path d="M0 0 C1.4540625 0.0309375 1.4540625 0.0309375 2.9375 0.0625 C2.9375 1.0525 2.9375 2.0425 2.9375 3.0625 C2.174375 3.330625 1.41125 3.59875 0.625 3.875 C-2.06003782 4.81994727 -2.06003782 4.81994727 -3.34375 6.625 C-5.90315001 8.7655891 -7.97964358 8.35549537 -11.25 8.25 C-12.33667969 8.22292969 -13.42335937 8.19585937 -14.54296875 8.16796875 C-15.79013672 8.11576172 -15.79013672 8.11576172 -17.0625 8.0625 C-17.0625 7.0725 -17.0625 6.0825 -17.0625 5.0625 C-13.4325 5.0625 -9.8025 5.0625 -6.0625 5.0625 C-5.4025 3.7425 -4.7425 2.4225 -4.0625 1.0625 C-3.0625 0.0625 -3.0625 0.0625 0 0 Z " fill="#3FA6DF" transform="translate(181.0625,204.9375)"/>
<path d="M0 0 C-0.85464844 0.38671875 -1.70929688 0.7734375 -2.58984375 1.171875 C-3.69457031 1.69265625 -4.79929687 2.2134375 -5.9375 2.75 C-7.03964844 3.26046875 -8.14179688 3.7709375 -9.27734375 4.296875 C-12.12486776 5.68798122 -12.12486776 5.68798122 -12.734375 8.0390625 C-12.82203125 8.68617188 -12.9096875 9.33328125 -13 10 C-15.71851946 13.08588695 -18.16853404 15.43903239 -22 17 C-22 11.91467521 -18.35987761 8.59986887 -15 5 C-10.40418634 1.42734194 -5.89236443 -1.82866482 0 0 Z " fill="#282828" transform="translate(285,126)"/>
<path d="M0 0 C0.66 0 1.32 0 2 0 C2 2.97 2 5.94 2 9 C3.98 9 5.96 9 8 9 C8 6.03 8 3.06 8 0 C8.99 0 9.98 0 11 0 C11 3.63 11 7.26 11 11 C7.37 11 3.74 11 0 11 C0 7.37 0 3.74 0 0 Z " fill="#242424" transform="translate(203,338)"/>
<path d="M0 0 C0.33 0 0.66 0 1 0 C1 3.63 1 7.26 1 11 C0.34 11 -0.32 11 -1 11 C-1 10.34 -1 9.68 -1 9 C-3.64 9 -6.28 9 -9 9 C-9 7.02 -9 5.04 -9 3 C-6.03 3 -3.06 3 0 3 C0 2.01 0 1.02 0 0 Z " fill="#DBDBDB" transform="translate(354,338)"/>
<path d="M0 0 C7.02906762 -0.807595 11.81162739 0.15606409 17.734375 4.0859375 C22.74822022 8.32177225 25.87000024 13.84449611 28 20 C28.07646165 22.3320802 28.09143299 24.66845878 28 27 C26.23265354 24.34898031 25.4981552 22.66136389 24.625 19.6875 C22.3734195 12.77593199 18.92895882 8.26885035 13 4 C8.75220939 2.19242953 4.57058105 1.54846973 0 1 C0 0.67 0 0.34 0 0 Z " fill="#D1D1D1" transform="translate(288,129)"/>
<path d="M0 0 C0.625 2.875 0.625 2.875 1 6 C-1 8 -1 8 -3.5 8.25 C-6 8 -6 8 -8 6 C-7.75 2.9375 -7.75 2.9375 -7 0 C-4.3333581 -1.33332095 -2.83319697 -0.67102033 0 0 Z " fill="#46AEDF" transform="translate(201,203)"/>
<path d="M0 0 C3.63 0 7.26 0 11 0 C11 0.99 11 1.98 11 3 C8.03 3 5.06 3 2 3 C2 4.98 2 6.96 2 9 C4.64 9 7.28 9 10 9 C10 9.66 10 10.32 10 11 C6.7 11 3.4 11 0 11 C0 7.37 0 3.74 0 0 Z " fill="#222222" transform="translate(343,338)"/>
<path d="M0 0 C3.63 0 7.26 0 11 0 C11 0.99 11 1.98 11 3 C8.03 3 5.06 3 2 3 C2 4.98 2 6.96 2 9 C4.64 9 7.28 9 10 9 C10 9.66 10 10.32 10 11 C6.7 11 3.4 11 0 11 C0 7.37 0 3.74 0 0 Z " fill="#222222" transform="translate(190,338)"/>
<path d="M0 0 C3.0625 0.1875 3.0625 0.1875 5.0625 2.1875 C4.50694444 6.74305556 4.50694444 6.74305556 3.0625 8.1875 C0.0625 8.3125 0.0625 8.3125 -2.9375 8.1875 C-3.9375 7.1875 -3.9375 7.1875 -4.0625 4.1875 C-3.89838889 0.24883333 -3.89838889 0.24883333 0 0 Z " fill="#6296E8" transform="translate(210.9375,223.8125)"/>
<path d="M0 0 C3.63 0 7.26 0 11 0 C11 0.66 11 1.32 11 2 C8.03 2 5.06 2 2 2 C2 4.31 2 6.62 2 9 C4.97 9 7.94 9 11 9 C11 9.66 11 10.32 11 11 C7.37 11 3.74 11 0 11 C0 7.37 0 3.74 0 0 Z " fill="#1D1D1D" transform="translate(92,338)"/>
<path d="M0 0 C5.94 0 11.88 0 18 0 C18 0.99 18 1.98 18 3 C12.06 3 6.12 3 0 3 C0 2.01 0 1.02 0 0 Z " fill="#8B44F8" transform="translate(170,272)"/>
<path d="M0 0 C0.99 0 1.98 0 3 0 C3 2.97 3 5.94 3 9 C5.64 9 8.28 9 11 9 C11 9.66 11 10.32 11 11 C7.37 11 3.74 11 0 11 C0 7.37 0 3.74 0 0 Z " fill="#2B2B2B" transform="translate(376,338)"/>
<path d="M0 0 C0.33 0 0.66 0 1 0 C1 3.3 1 6.6 1 10 C0.34 10 -0.32 10 -1 10 C-1 9.34 -1 8.68 -1 8 C-3.64 8 -6.28 8 -9 8 C-9 7.34 -9 6.68 -9 6 C-6.03 6 -3.06 6 0 6 C0 5.34 0 4.68 0 4 C-2.97 4 -5.94 4 -9 4 C-9 3.34 -9 2.68 -9 2 C-6.03 2 -3.06 2 0 2 C0 1.34 0 0.68 0 0 Z " fill="#C8C8C8" transform="translate(142,339)"/>
<path d="M0 0 C0.66 0 1.32 0 2 0 C2 3.63 2 7.26 2 11 C0 7 0 7 0 4 C-2.97 4 -5.94 4 -9 4 C-9 3.67 -9 3.34 -9 3 C-6.03 3 -3.06 3 0 3 C0 2.01 0 1.02 0 0 Z M-9 7 C-6.03 7 -3.06 7 0 7 C0 7.66 0 8.32 0 9 C-2.97 9 -5.94 9 -9 9 C-9 8.34 -9 7.68 -9 7 Z " fill="#CFCFCF" transform="translate(188,338)"/>
<path d="M0 0 C3.63 0 7.26 0 11 0 C11 0.66 11 1.32 11 2 C9.68 2 8.36 2 7 2 C7 4.97 7 7.94 7 11 C6.34 11 5.68 11 5 11 C5 8.36 5 5.72 5 3 C3.35 3 1.7 3 0 3 C0 2.01 0 1.02 0 0 Z " fill="#272727" transform="translate(232,338)"/>
<path d="M0 0 C2.97 0 5.94 0 9 0 C3.375 6.75 3.375 6.75 0 9 C0 6.03 0 3.06 0 0 Z " fill="#FCFAFE" transform="translate(195,272)"/>
<path d="M0 0 C1.65 0 3.3 0 5 0 C6.125 6.75 6.125 6.75 5 9 C1 9 1 9 -1 8 C-0.67 5.36 -0.34 2.72 0 0 Z " fill="#2F2F2F" transform="translate(321,148)"/>
<path d="M0 0 C3.63 0 7.26 0 11 0 C11 0.33 11 0.66 11 1 C7.7 1 4.4 1 1 1 C1 4.3 1 7.6 1 11 C0.01 11 -0.98 11 -2 11 C-2 9.02 -2 7.04 -2 5 C-4.64 5 -7.28 5 -10 5 C-10 4.67 -10 4.34 -10 4 C-6.7 4 -3.4 4 0 4 C0 2.68 0 1.36 0 0 Z " fill="#868686" transform="translate(304,338)"/>
<path d="M0 0 C0.66 0.33 1.32 0.66 2 1 C2.25 7.625 2.25 7.625 0 11 C0 10.34 0 9.68 0 9 C-2.64 9 -5.28 9 -8 9 C-8 8.34 -8 7.68 -8 7 C-5.36 7 -2.72 7 0 7 C0 6.01 0 5.02 0 4 C-2.64 4 -5.28 4 -8 4 C-8 3.67 -8 3.34 -8 3 C-5.36 3 -2.72 3 0 3 C0 2.01 0 1.02 0 0 Z " fill="#D0D0D0" transform="translate(315,338)"/>
<path d="M0 0 C1.58323688 -0.027193 3.16661062 -0.04648306 4.75 -0.0625 C6.07257813 -0.07990234 6.07257813 -0.07990234 7.421875 -0.09765625 C9.7818838 -0.00826198 11.74498524 0.33087179 14 1 C14 1.66 14 2.32 14 3 C12.02 3.33 10.04 3.66 8 4 C8 3.34 8 2.68 8 2 C5.36 2 2.72 2 0 2 C0 1.34 0 0.68 0 0 Z M-1 4 C1.97 4 4.94 4 8 4 C8 4.33 8 4.66 8 5 C5.03 5 2.06 5 -1 5 C-1 4.67 -1 4.34 -1 4 Z " fill="#060606" transform="translate(287,120)"/>
<path d="M0 0 C2.12508244 3.18762365 2.5020163 5.26512223 3 9 C2.01 8.01 1.02 7.02 0 6 C0.66 8.31 1.32 10.62 2 13 C1.01 12.67 0.02 12.34 -1 12 C-2.375 8.75 -2.375 8.75 -3 5 C-1.625 2.0625 -1.625 2.0625 0 0 Z " fill="#212121" transform="translate(321,136)"/>
<path d="M0 0 C2.97 0 5.94 0 9 0 C9 0.66 9 1.32 9 2 C6.69 2 4.38 2 2 2 C2 3.32 2 4.64 2 6 C4.31 6 6.62 6 9 6 C9 6.33 9 6.66 9 7 C6.03 7 3.06 7 0 7 C0 4.69 0 2.38 0 0 Z " fill="#AEAEAE" transform="translate(94,340)"/>
<path d="M0 0 C3.3 0 6.6 0 10 0 C10 1.98 10 3.96 10 6 C9.34 6 8.68 6 8 6 C8 7.32 8 8.64 8 10 C7.34 10 6.68 10 6 10 C6 8.02 6 6.04 6 4 C6.66 4 7.32 4 8 4 C8 3.01 8 2.02 8 1 C5.69 1 3.38 1 1 1 C0.67 1.99 0.34 2.98 0 4 C0 2.68 0 1.36 0 0 Z " fill="#040404" transform="translate(216,339)"/>
<path d="M0 0 C3.3 0 6.6 0 10 0 C10 1.98 10 3.96 10 6 C9.34 6 8.68 6 8 6 C8 7.32 8 8.64 8 10 C7.34 10 6.68 10 6 10 C6 8.02 6 6.04 6 4 C6.66 4 7.32 4 8 4 C8 3.01 8 2.02 8 1 C5.69 1 3.38 1 1 1 C0.67 1.99 0.34 2.98 0 4 C0 2.68 0 1.36 0 0 Z " fill="#040404" transform="translate(144,339)"/>
<path d="M0 0 C0.99 0 1.98 0 3 0 C3 3.63 3 7.26 3 11 C2.01 11 1.02 11 0 11 C0 7.37 0 3.74 0 0 Z " fill="#474747" transform="translate(228,338)"/>
<path d="M0 0 C0.66 0.33 1.32 0.66 2 1 C2 3 2 3 -0.25 5.5 C-2.5264965 7.56954228 -4.19566446 8.85749293 -7 10 C-7 7 -7 7 -4.625 4.4375 C-3.75875 3.633125 -2.8925 2.82875 -2 2 C-1.34 1.34 -0.68 0.68 0 0 Z " fill="#101010" transform="translate(270,133)"/>
<path d="M0 0 C2.64 0 5.28 0 8 0 C8 1.32 8 2.64 8 4 C5.36 4 2.72 4 0 4 C0 2.68 0 1.36 0 0 Z " fill="#F8F8F8" transform="translate(346,342)"/>
<path d="M0 0 C2.3125 0.4375 2.3125 0.4375 4.3125 2.4375 C4.4375 5.5625 4.4375 5.5625 4.3125 8.4375 C3.9825 8.4375 3.6525 8.4375 3.3125 8.4375 C2.6525 6.4575 1.9925 4.4775 1.3125 2.4375 C-3.12208973 3.8312282 -5.56128374 6.04332235 -8.6875 9.4375 C-8.14125425 4.52128829 -4.8919856 0.79636975 0 0 Z " fill="#D5D5D5" transform="translate(294.6875,147.5625)"/>
<path d="M0 0 C0.33 0 0.66 0 1 0 C1 3.63 1 7.26 1 11 C1.66 11 2.32 11 3 11 C3 9.68 3 8.36 3 7 C4.32 7 5.64 7 7 7 C6.67 8.32 6.34 9.64 6 11 C4.02 11.33 2.04 11.66 0 12 C0 8.04 0 4.08 0 0 Z " fill="#E4E4E4" transform="translate(265,338)"/>
<path d="M0 0 C0.66 0 1.32 0 2 0 C2 3.3 2 6.6 2 10 C1.34 10 0.68 10 0 10 C0 7.69 0 5.38 0 3 C-2.64 3 -5.28 3 -8 3 C-8 2.67 -8 2.34 -8 2 C-5.36 2 -2.72 2 0 2 C0 1.34 0 0.68 0 0 Z " fill="#E2E2E2" transform="translate(175,339)"/>
<path d="M0 0 C0.66 0.66 1.32 1.32 2 2 C1.44570313 2.47050781 0.89140625 2.94101563 0.3203125 3.42578125 C-0.40414063 4.04839844 -1.12859375 4.67101562 -1.875 5.3125 C-2.59429687 5.92738281 -3.31359375 6.54226562 -4.0546875 7.17578125 C-6.19179331 9.0412324 -6.19179331 9.0412324 -8 12 C-8.33 11.01 -8.66 10.02 -9 9 C-7.63671875 6.9921875 -7.63671875 6.9921875 -5.6875 4.875 C-5.05199219 4.17117187 -4.41648437 3.46734375 -3.76171875 2.7421875 C-2 1 -2 1 0 0 Z " fill="#222222" transform="translate(281,133)"/>
<path d="M0 0 C5.17379682 2.24783891 8.77697025 4.16545537 12 9 C8.30603212 9 7.18701481 7.67460527 4.49609375 5.3125 C2.73782139 3.76999475 0.88775559 2.3795137 -1 1 C-0.67 0.67 -0.34 0.34 0 0 Z " fill="#222222" transform="translate(304,126)"/>
<path d="M0 0 C0.33 0 0.66 0 1 0 C1 3.63 1 7.26 1 11 C0.01 11 -0.98 11 -2 11 C-2 10.34 -2 9.68 -2 9 C-4.64 9 -7.28 9 -10 9 C-10 8.67 -10 8.34 -10 8 C-6.7 8 -3.4 8 0 8 C0 5.36 0 2.72 0 0 Z " fill="#C2C2C2" transform="translate(202,338)"/>
<path d="M0 0 C2.33524782 2.25740623 4.18705073 4.2805761 6 7 C5.67 7.99 5.34 8.98 5 10 C4.34 10 3.68 10 3 10 C0 3.375 0 3.375 0 0 Z " fill="#9F9F9F" transform="translate(320,139)"/>
<path d="M0 0 C2.31 0 4.62 0 7 0 C7 0.99 7 1.98 7 3 C4.69 3 2.38 3 0 3 C0 2.01 0 1.02 0 0 Z " fill="#8A8A8A" transform="translate(391,340)"/>
<path d="M0 0 C2.31 0 4.62 0 7 0 C7 0.99 7 1.98 7 3 C4.69 3 2.38 3 0 3 C0 2.01 0 1.02 0 0 Z " fill="#8A8A8A" transform="translate(332,340)"/>
<path d="M0 0 C2.31 0 4.62 0 7 0 C7 0.99 7 1.98 7 3 C4.69 3 2.38 3 0 3 C0 2.01 0 1.02 0 0 Z " fill="#8A8A8A" transform="translate(319,340)"/>
<path d="M0 0 C2.31 0 4.62 0 7 0 C7 0.99 7 1.98 7 3 C4.69 3 2.38 3 0 3 C0 2.01 0 1.02 0 0 Z " fill="#8A8A8A" transform="translate(268,340)"/>
<path d="M0 0 C0.66 0.33 1.32 0.66 2 1 C2 1.66 2 2.32 2 3 C-2.38461538 6 -2.38461538 6 -5 6 C-3.63016497 2.83884224 -3.0109362 2.0072908 0 0 Z " fill="#3E8FE1" transform="translate(207,218)"/>
<path d="M0 0 C1.98 0 3.96 0 6 0 C6 0.99 6 1.98 6 3 C4.02 3 2.04 3 0 3 C0 2.01 0 1.02 0 0 Z " fill="#868686" transform="translate(404,340)"/>
<path d="M0 0 C1.98 0 3.96 0 6 0 C6 0.99 6 1.98 6 3 C4.02 3 2.04 3 0 3 C0 2.01 0 1.02 0 0 Z " fill="#868686" transform="translate(120,340)"/>
<path d="M0 0 C0.66 0.33 1.32 0.66 2 1 C-0.75 5.875 -0.75 5.875 -3 7 C-3.33 6.01 -3.66 5.02 -4 4 C-2.68 2.68 -1.36 1.36 0 0 Z " fill="#696969" transform="translate(292,150)"/>
<path d="M0 0 C0.66 0.33 1.32 0.66 2 1 C2 2.32 2 3.64 2 5 C-1.3 4.67 -4.6 4.34 -8 4 C-8 3.67 -8 3.34 -8 3 C-5.36 3 -2.72 3 0 3 C0 2.01 0 1.02 0 0 Z " fill="#DCDCDC" transform="translate(315,338)"/>
</svg>
